<?xml version="1.0" encoding="UTF-8"?>
<svg width="35px" height="26px" viewBox="0 0 35 26" version="1.1" xmlns="http://www.w3.org/2000/svg" xmlns:xlink="http://www.w3.org/1999/xlink">
    <!-- Generator: Sketch 56.3 (81716) - https://sketch.com -->
    <title>Group 16</title>
    <desc>Created with Sketch.</desc>
    <g id="Page-1" stroke="none" stroke-width="1" fill="none" fill-rule="evenodd">
        <g id="iPhone-8-Copy-3" transform="translate(-219.000000, -454.000000)" fill-rule="nonzero">
            <g id="Group-16" transform="translate(219.000000, 454.000000)">
                <path d="M33.2651898,15.6209966 C35.5782701,17.9951507 35.5782701,21.8233631 33.2651898,24.1975172 C32.1426939,25.3496511 30.6130023,26 29.0144891,26 L5.98551095,26 C2.6679713,26 0,23.2615845 0,19.9092569 C0,18.3047795 0.622207141,16.7629765 1.73481022,15.6209966 L13.2492993,3.80248276 C15.5907858,1.39917241 19.4092142,1.39917241 21.7507007,3.80248276 L33.2651898,15.6209966 Z" id="Rectangle" fill="#000000" opacity="0.549758185"></path>
                <path d="M33.2651898,13.6209966 C35.5782701,15.9951507 35.5782701,19.8233631 33.2651898,22.1975172 C32.1426939,23.3496511 30.6130023,24 29.0144891,24 L5.98551095,24 C2.6679713,24 0,21.2615845 0,17.9092569 C0,16.3047795 0.622207141,14.7629765 1.73481022,13.6209966 L13.2492993,1.80248276 C15.5907858,-0.600827587 19.4092142,-0.600827587 21.7507007,1.80248276 L33.2651898,13.6209966 Z" id="Rectangle" fill="#000000"></path>
                <path d="M20.3181818,3.19815091 C18.761743,1.60061636 16.238257,1.60061636 14.6818182,3.19815091 L3.16732913,15.0166648 C2.41990084,15.7838279 2,16.8243244 2,17.9092569 C2,20.1685119 3.78437403,22 5.98551095,22 L29.0144891,22 C30.0715123,22 31.0852426,21.5690122 31.8326709,20.8018491 C33.3891097,19.2043146 33.3891097,16.6141993 31.8326709,15.0166648 L20.3181818,3.19815091 Z" id="Path" fill="#FFFFFF"></path>
            </g>
        </g>
    </g>
</svg>