<svg width="1931" height="227" xmlns="http://www.w3.org/2000/svg"><path d="M0 0h1931v205.243c-17.198-3.535-30.34-9.17-39.429-16.903-8.646 22.678-14.436 35.564-17.372 38.66-18.292-14.426-30.097-26.003-35.417-34.731-8.218 10.214-13.897 16.589-17.036 19.124-9.212-7.823-16.857-16.481-22.935-25.976l-.374 2.124c-9.554 10.758-18.98 19.557-28.277 26.398l-.227-.293-.125.138-.463-.495c-9.526-10.297-16.006-24.565-19.44-42.804l-.142-.764-.758.662c-9.895 8.55-21.412 15.324-34.55 20.323-2.114-3.438-5.34-11.344-9.68-23.718-7.926 6.45-22.917 13.42-44.971 20.91-1.735-3.9-2.895-17.981-3.48-42.246-13.719 5.235-32.165 5.423-55.338.563.94-10.345 10.106-25.815 27.497-46.409-18.08 1.339-35.636-2.374-52.667-11.137 3.995-9.923 15.077-22.625 33.246-38.105-17.535-7.085-30.503-13.898-38.904-20.44-.967 8.364-4.83 18.401-11.591 30.11-6.302-2.102-17.352-10.291-33.15-24.57l-.529-.477-.166.868c-3.437 17.596-10.526 31.916-21.268 42.96a30.149 30.149 0 0 1-2.589 2.778c-16.263-15.791-19.658-21.297-29.508-37.317-8.179 16.373-17.69 29.823-28.532 40.35-9.38-8.803-16.38-28.927-20.998-47.254-12.166 5.624-23.477 9.621-33.933 11.992l-.92.205-.081-.327-.155.069-.216-.624c-3.541-10.442-4.1-22.504-1.674-36.187-12.858 4.908-23.808 6.656-32.849 5.242 3.253 17.346 4.557 27.536 3.912 30.571-16.82-1.992-28.538-4.682-35.152-8.071-1.216 9.456-2.316 15.566-3.3 18.33-10.36-1.608-19.79-4.804-28.289-9.585l.015.565.013.65c.225 13.415-2.317 24.466-7.626 33.153l-.11-.08-.117.243-.685-.313c-7.78-3.592-15.96-8.596-24.536-15.014-6.653 13.554-15.465 28.118-24.26 33.438-6.728-10.03-11.93-22.123-15.605-36.279-10.36 10.883-13.928 14.62-29.263 24.258a24.1 24.1 0 0 1-1.563-2.602c-6.671-10.587-9.831-23.192-9.48-37.816l-.492.286c-14.72 8.532-24.718 13.095-29.994 13.69-3.898-11.99-5.092-21.543-3.58-28.66l.048-.214.013-.048c-6.329 3.94-17.523 7.726-33.584 11.359-.96-2.952-.729-13.222.69-30.812-7.489 1.99-16.577 1.868-27.264-.365 2.086 13.162 1.348 24.79-2.213 34.885l-.155-.069-.08.327-.921-.205c-10.456-2.37-21.767-6.368-33.933-11.992-4.619 18.327-11.618 38.451-20.998 47.255-10.842-10.528-20.353-23.978-28.532-40.351-6.457 10.502-16.277 22.925-29.458 37.268-13.182-14.343-23-26.766-29.458-37.268-8.179 16.373-17.69 29.823-28.532 40.35-9.38-8.803-16.38-28.927-20.998-47.254-12.166 5.624-23.477 9.621-33.933 11.992l-.92.205-.081-.327-.155.069c-3.56-10.095-4.299-21.723-2.213-34.885-10.687 2.233-19.775 2.355-27.265.365 1.42 17.59 1.65 27.86.691 30.812-16.06-3.633-27.255-7.42-33.584-11.36l.013.049.048.213c1.512 7.118.318 16.672-3.58 28.66-5.276-.594-15.273-5.157-29.994-13.689l-.492-.286c.35 14.624-2.809 27.229-9.48 37.816a24.1 24.1 0 0 1-1.563 2.602c-15.335-9.637-18.903-13.375-29.263-24.258-3.675 14.156-8.877 26.249-15.606 36.279-8.794-5.32-17.606-19.884-24.259-33.438-8.577 6.418-16.755 11.422-24.536 15.014l-.685.313-.118-.242-.11.079c-5.308-8.687-7.85-19.738-7.625-33.152l.013-.651.015-.565c-8.498 4.781-17.928 7.977-28.29 9.586-.983-2.765-2.083-8.875-3.299-18.331-6.614 3.389-18.331 6.08-35.152 8.071-.645-3.035.66-13.225 3.912-30.57-9.041 1.413-19.99-.335-32.85-5.243 2.426 13.683 1.868 25.745-1.673 36.187l-.216.624-.155-.069-.08.327-.921-.205c-10.456-2.37-21.767-6.368-33.933-11.992-4.619 18.327-11.618 38.451-20.998 47.255-10.842-10.528-20.353-23.978-28.532-40.351-9.85 16.02-13.245 21.526-29.508 37.317a30.15 30.15 0 0 1-2.59-2.778c-10.74-11.044-17.83-25.364-21.267-42.96l-.166-.868-.528.478c-15.799 14.278-26.849 22.467-33.15 24.57-6.762-11.71-10.625-21.747-11.592-30.11-8.4 6.541-21.369 13.354-38.904 20.439 18.17 15.48 29.251 28.182 33.246 38.105-17.031 8.763-34.587 12.476-52.667 11.137 17.39 20.594 26.556 36.064 27.497 46.41-23.173 4.86-41.62 4.671-55.339-.564-.584 24.265-1.744 38.347-3.479 42.245-22.054-7.489-37.045-14.458-44.971-20.909-4.34 12.374-7.566 20.28-9.68 23.718-13.138-5-24.655-11.774-34.55-20.323l-.758-.662-.141.764c-3.435 18.24-9.915 32.507-19.44 42.804l-.464.495-.125-.138-.227.293c-9.298-6.84-18.723-15.64-28.277-26.398l-.374-2.124c-6.078 9.495-13.723 18.153-22.935 25.976-3.14-2.535-8.818-8.91-17.036-19.124-5.32 8.728-17.125 20.305-35.417 34.731-2.936-3.096-8.726-15.982-17.372-38.66-9.09 7.733-22.231 13.368-39.429 16.903V0Z" fill="#0D5E45" fill-rule="evenodd"/></svg>